<svg width="1325" height="403" viewBox="0 0 1325 403" fill="none" xmlns="http://www.w3.org/2000/svg">
<path d="M132.619 312.65C127.079 315.37 126.049 315.52 110.809 315.82C98.8395 316.06 94.4995 315.82 93.5595 314.87C92.5995 313.9 92.3095 304.23 92.3095 273.46C92.3095 227.94 92.7095 224.75 100.259 209.5C109.929 189.99 125.669 176.79 146.839 170.42C154.899 168 158.089 167.65 178.309 166.94C202.809 166.09 208.589 165.07 218.449 159.83C230.689 153.33 242.579 139.3 247.299 125.78C249.939 118.2 251.039 103.36 249.409 97.34C248.059 92.36 242.949 87.51 237.569 86.1C235.499 85.55 229.209 84.61 223.589 84.01C200.039 81.47 193.069 77.41 180.609 58.95C174.539 49.96 154.959 30.9 146.749 26C141.639 22.95 140.039 22.5 134.319 22.5C128.399 22.5 127.249 22.85 122.779 26.04C117.039 30.12 110.439 39.37 107.309 47.71C103.339 58.28 102.199 67.33 101.859 91C101.509 114.94 100.789 119.98 95.7595 134C88.2695 154.84 79.6495 164.8 63.0395 171.77C57.8295 173.96 55.2495 174.4 47.3095 174.43C36.2795 174.47 30.1695 172.38 18.3395 164.52C0.759453 152.83 -3.92055 134.93 3.17945 106.5C11.9495 71.43 25.3695 45.06 43.4895 27.37C57.2095 13.95 69.6795 6.78 86.6895 2.49L96.5695 0L152.689 0.0100002C185.329 0.0100002 211.389 0.43 214.979 1.02C230.199 3.49 246.939 10 259.499 18.34C282.619 33.69 300.119 61.78 305.389 92C307.039 101.47 307.039 121.49 305.389 130C300.289 156.37 286.899 180.22 268.959 194.88C244.619 214.76 224.309 220.99 183.709 221C171.089 221 161.349 221.44 159.489 222.09C153.689 224.11 152.309 228.02 152.279 242.62C152.219 265.2 150.619 285.85 148.339 293.19C145.539 302.23 140.079 308.98 132.619 312.65ZM449.149 317.52C442.369 318.96 421.249 320.17 415.809 319.43C405.319 318.01 397.819 316.46 390.809 314.27C344.359 299.74 317.019 256.87 319.649 202.68C321.189 170.81 331.519 144.9 350.199 126.03C371.099 104.9 402.949 94.39 435.639 97.82C471.099 101.54 495.359 117.74 510.089 147.5C518.489 164.48 522.159 180.56 522.999 204.04C523.529 218.81 523.409 220.76 521.879 222.29C520.299 223.87 514.789 224 448.239 224H376.309V226.29C376.309 229.87 379.159 239.97 381.799 245.75C384.599 251.87 393.009 261.15 398.879 264.59C409.429 270.78 423.249 273.1 434.949 270.65C447.739 267.97 456.449 261.73 462.969 250.57C464.919 247.23 466.659 244.35 466.829 244.16C467.669 243.28 516.119 254.71 518.059 256.25C520.009 257.8 519.579 259.99 515.749 267.99C509.019 282.04 498.739 293.94 485.809 302.67C474.669 310.19 464.729 314.22 449.149 317.52ZM833.639 316.04C814.239 321.05 792.939 320.86 773.809 315.51C753.619 309.87 735.089 298.11 723.209 283.4C705.279 261.2 697.289 235.03 698.589 202.72C699.719 174.39 708.849 149.75 725.689 129.56C735.399 117.92 755.729 105.5 772.309 101.08C805.459 92.24 841.939 98.57 865.909 117.32C886.299 133.27 898.949 161.83 901.389 197.35C902.529 213.98 901.889 221.62 899.259 223.03C898.129 223.63 870.459 224 826.379 224C759.359 224 755.309 224.1 755.319 225.75C755.359 229.98 758.559 240.55 761.689 246.77C772.499 268.22 800.499 277.76 822.809 267.59C829.179 264.68 837.099 257.53 841.819 250.42C843.849 247.36 846.199 244.6 847.039 244.27C848.759 243.61 895.119 254.71 897.049 256.24C898.659 257.52 897.859 260.73 893.739 269.51C887.429 282.95 876.669 294.88 862.809 303.81C853.249 309.97 846.949 312.61 833.639 316.04ZM1213.63 399.25L1212.01 403H1187.78C1168.93 403 1163.31 402.71 1162.46 401.68C1161.64 400.69 1162.46 397.23 1165.72 387.93C1172.85 367.61 1181.76 342.52 1187.71 326.03L1193.3 310.56L1181.71 281.53C1156.44 218.22 1145.13 189.7 1138.29 172C1134.35 161.82 1128.51 146.75 1125.31 138.5C1115.3 112.68 1113.31 107.13 1113.31 105.03C1113.31 103.04 1113.83 103 1140.72 103H1168.14L1170.68 109.75C1172.07 113.46 1180.03 134.5 1188.35 156.5C1196.68 178.5 1206.39 204.38 1209.95 214C1213.5 223.62 1217.12 233.41 1217.99 235.75C1219.51 239.81 1221.31 241.43 1221.31 238.73C1221.31 236.33 1267.58 110.1 1270.37 104.89C1271.32 103.11 1272.92 103 1297.85 103C1322.38 103 1324.31 103.13 1324.31 104.75C1324.31 106.73 1281.63 220.89 1263.83 266.5C1257.36 283.1 1228.28 360.04 1221.13 379.5C1217.9 388.3 1214.52 397.19 1213.63 399.25ZM1044.86 317.08C1036.12 318.88 1015.3 320.21 1008.31 319.41C978.509 316.01 961.099 308.72 945.229 293C938.079 285.92 935.859 282.91 931.949 275C926.969 264.9 924.169 254.74 925.899 253.01C926.779 252.13 962.28 244.21 972.99 242.51L977.179 241.85L980.609 249.27C984.869 258.5 989.589 263.81 997.039 267.76C1012.74 276.09 1037.18 274 1044.54 263.69C1046.36 261.14 1046.81 259.17 1046.81 253.82C1046.81 240.91 1042.18 238.05 1003.31 226.97C966.729 216.54 958.699 213.04 947.659 202.71C936.129 191.92 931.879 181.28 932.009 163.5C932.079 154.58 932.579 150.99 934.669 144.5C938.939 131.2 946.629 121.05 958.669 112.79C985.859 94.15 1031.54 91.81 1063.96 107.41C1080.05 115.16 1093.29 129.97 1098.81 146.4C1101.62 154.77 1101.87 157.3 1100.06 158.76C1098.35 160.13 1050.79 168.4 1048.86 167.66C1048.01 167.33 1046.26 164.69 1044.97 161.78C1041.95 154.99 1035.26 148.88 1027.73 146.03C1022.64 144.11 1020.41 143.86 1011.81 144.24C1003.53 144.6 1000.92 145.13 996.659 147.31C989.689 150.86 987.299 154.09 987.349 159.88C987.359 162.42 987.929 165.47 988.599 166.67C992.119 172.95 1002.8 177.64 1029.31 184.54C1055.86 191.45 1063.32 193.9 1074.94 199.51C1095.58 209.49 1105.26 225.44 1105.3 249.57C1105.31 260.59 1104.06 267.81 1100.69 276.11C1092.2 297.01 1072.64 311.36 1044.86 317.08ZM666.809 316.48C654.569 318.32 633.469 318.3 623.159 316.44C594.919 311.33 577.629 293.33 572.359 263.57C571.709 259.89 571.309 236.4 571.309 201.82V146L555.559 145.98C546.899 145.98 539.239 145.61 538.539 145.16C537.559 144.54 537.329 139.6 537.539 123.93L537.809 103.5L570.809 102.5L571.079 73.58C571.249 54.29 571.709 44.22 572.449 43.33C573.319 42.29 579.069 42 599.329 42C621.899 42 625.169 42.2 625.699 43.58C626.039 44.45 626.309 58.17 626.309 74.07V102.97L682.809 103.5L683.079 123.37C683.269 137.18 682.999 143.66 682.209 144.62C681.289 145.73 675.729 146 653.689 146H626.309L626.329 252.5L628.709 257.62C631.469 263.55 636.259 267.58 642.919 269.58C648.689 271.32 662.849 271.41 674.069 269.79C684.039 268.35 684.269 268.53 683.809 277.41C683.639 280.76 683.459 290.1 683.409 298.17L683.309 312.84L680.059 313.91C678.269 314.5 672.309 315.66 666.809 316.48ZM757.309 182.05C757.309 183.96 758.319 184 801.309 184H845.309L845.289 181.75C845.249 178.08 840.729 166.32 837.269 160.93C828.929 147.93 814.339 141.98 795.879 144.05C782.849 145.52 772.779 151.32 765.869 161.34C762.129 166.78 757.309 178.43 757.309 182.05ZM378.579 180L378.049 184H421.709C458.879 184 465.459 183.78 465.929 182.55C466.659 180.65 463.769 170.84 460.689 164.76C453.459 150.5 442.049 144 424.239 144C408.189 144 396.799 148.92 388.229 159.54C384.099 164.67 379.269 174.92 378.579 180Z" fill="#1C305E"/>
</svg>
